<svg width="1920" height="1080" viewBox="0 0 1920 1080" fill="none" xmlns="http://www.w3.org/2000/svg">
<path d="M2.43745e-10 80.8963H710C729.33 80.8963 745 65.2263 745 45.8963V35C745 15.6701 760.67 0 780 0H1140C1159.33 0 1175 15.67 1175 35V45.8963C1175 65.2262 1190.67 80.8963 1210 80.8963H1920V1080H1210C1190.67 1080 1175 1064.33 1175 1045V1030.65C1175 1011.32 1159.33 995.647 1140 995.647H779.5C760.17 995.647 744.5 1011.32 744.5 1030.65V1045C744.5 1064.33 728.83 1080 709.5 1080H0L2.43745e-10 80.8963Z" fill="#E8E8E8"/>
</svg>
