<svg width="850" height="1200" viewBox="0 0 850 1200" fill="none" xmlns="http://www.w3.org/2000/svg">
<path d="M0 97.7517C0 86.706 8.95431 77.7518 20 77.7518H34.4531C45.4988 77.7518 54.4531 68.7975 54.4531 57.7518V20C54.4531 8.95432 63.4074 0 74.4531 0H775.547C786.593 0 795.547 8.9543 795.547 20V57.7517C795.547 68.7974 804.501 77.7518 815.547 77.7518H830C841.046 77.7518 850 86.7061 850 97.7518V1180C850 1191.05 841.046 1200 830 1200H20C8.9543 1200 0 1191.05 0 1180L0 97.7517Z" fill="#E8E8E8"/>
</svg>
